<?xml version="1.0" standalone="no"?><!DOCTYPE svg PUBLIC "-//W3C//DTD SVG 1.1//EN" "http://www.w3.org/Graphics/SVG/1.1/DTD/svg11.dtd"><svg t="1553510372509" class="icon" style="" viewBox="0 0 1024 1024" version="1.1" xmlns="http://www.w3.org/2000/svg" p-id="26522" xmlns:xlink="http://www.w3.org/1999/xlink" width="64" height="64"><defs><style type="text/css">@font-face { font-family: uc-nexus-iconfont; src: url("chrome-extension://pogijhnlcfmcppgimcaccdkmbedjkmhi/res/font_9qmmi8b8jsxxbt9.woff") format("woff"), url("chrome-extension://pogijhnlcfmcppgimcaccdkmbedjkmhi/res/font_9qmmi8b8jsxxbt9.ttf") format("truetype"); }
</style></defs><path d="M184.277333 577.770667c-0.042667 0.085333-0.085333 0.149333-0.128 0.234667 0 0-0.064 0.128-0.106667 0.170667l0 0c0.085333-0.128 0.192-0.298667 0.256-0.405333C184.490667 577.536 184.533333 577.493333 184.277333 577.770667z" p-id="26523" fill="#9b06d8"></path><path d="M512 0C229.226667 0 0 229.226667 0 512s229.226667 512 512 512 512-229.226667 512-512S794.773333 0 512 0zM437.973333 761.578667c-5.568 20.864-37.12 36.992-57.109333 29.226667-9.984-3.861333-14.208-12.544-11.029333-22.677333 0.277333-0.917333 0.618667-1.877333 0.981333-2.88 1.130667-3.136 6.208-15.381333 6.634667-16.448l7.765333-19.648-20.416 5.418667c-1.28 0.341333-1.28 0.341333-2.517333 0.682667-1.514667 0.426667-6.698667 1.898667-7.786667 2.197333-2.688 0.746667-4.714667 1.258667-6.613333 1.642667-0.746667 0.149333-0.746667 0.149333-1.472 0.277333-9.493333 1.770667-14.826667 1.088-19.093333-2.602667-6.250667-5.44-7.957333-10.944-5.589333-18.346667 1.216-3.776 6.229333-18.816 5.952-17.962667l6.122667-18.517333-18.88 4.821333c-2.304 0.597333-9.642667 2.517333-9.642667 2.517333-3.477333 0.896-6.016 1.514667-8.448 2.048-0.597333 0.128-0.597333 0.128-1.194667 0.256-14.549333 3.008-25.045333-8.810667-20.373333-22.869333 0.170667-0.512 0.170667-0.512 0.341333-1.045333 1.002667-2.986667 5.141333-14.570667 5.418667-15.338667l6.570667-18.709333-19.221333 4.842667c-1.386667 0.341333-2.794667 0.682667-5.589333 1.322667-2.752 0.64-4.672 1.173333-6.656 1.877333-20.394667 7.168-33.173333-7.104-28.757333-26.517333 4.458667-19.605333 20.693333-36.010667 37.888-38.464 18.624-2.666667 33.493333 12.373333 30.528 30.826667-0.192 1.237333-0.426667 2.709333-1.045333 6.528l-2.304 14.272 14.314667-2.005333c13.632-1.898667 22.293333-0.106667 28.992 6.592 6.677333 6.677333 8.213333 15.082667 5.866667 29.290667l-2.24 13.632 13.76-1.28c15.573333-1.450667 24.042667 0.597333 30.421333 8.170667 6.826667 8.106667 7.978667 17.578667 4.117333 30.805333l-4.416 15.104 15.658667-1.493333c1.514667-0.149333 2.901333-0.298667 4.970667-0.576 5.376-0.682667 6.869333-0.832 8.917333-0.768C431.232 726.293333 442.986667 742.72 437.973333 761.578667zM469.269333 309.866667c-4.864 2.666667-9.450667 5.205333-11.114667 6.122667-7.210667 3.989333-13.098667 7.338667-18.752 10.645333-24.810667 14.506667-36.821333 21.738667-50.816 30.848-34.090667 22.208-47.765333 61.162667-34.453333 98.154667 12.522667 34.816 49.984 59.413333 83.797333 53.909333 9.770667-1.621333 19.754667-4.821333 30.506667-9.493333 13.184-5.717333 24.106667-10.709333 46.698667-21.162667 0.64-0.298667 0.64-0.298667 1.28-0.597333 10.090667-4.672 14.784-6.848 20.501333-9.450667 17.941333-8.213333 30.656-5.866667 44.821333 8.298667 11.690667 11.690667 22.314667 22.293333 41.344 41.344 4.032 4.032 4.032 4.032 8.064 8.064 38.997333 38.997333 59.797333 59.776 83.285333 83.221333 9.365333 9.344 9.856 22.464 1.578667 30.954667-8.405333 8.618667-21.354667 8.192-31.253333-1.621333C682.666667 637.034667 682.666667 637.034667 680.576 634.944c-0.704-0.704-0.704-0.704-1.429333-1.408-18.261333-18.154667-26.986667-26.752-37.674667-36.928-0.106667-0.106667-0.277333-0.298667-1.408-1.621333-6.890667-7.957333-15.125333-11.242667-24.298667-2.837333-7.36 6.976-2.645333 19.2 3.541333 25.941333 9.941333 10.965333 18.261333 19.754667 36.458667 38.698667 0.298667 0.32 0.298667 0.32 0.618667 0.64 2.048 2.133333 2.048 2.133333 4.074667 4.245333 11.648 12.117333 9.365333 29.162667-4.074667 35.669333-8.384 4.074667-17.898667 1.962667-26.112-6.293333-16.064-16.042667-32.981333-32.64-53.226667-52.309333-1.6-1.557333-3.306667-2.794667-5.525333-4.181333-0.085333-0.064-4.032-2.410667-5.098667-3.093333l-13.290667-8.704-3.029333 15.594667c-1.898667 9.728 0.938667 16.192 7.36 23.104 0.810667 0.874667 0.810667 0.874667 1.450667 1.557333 10.496 11.392 19.114667 20.501333 38.08 40.32 0.256 0.277333 0.256 0.277333 0.512 0.533333 0.810667 0.832 0.810667 0.832 1.621333 1.685333 5.056 5.248 7.338667 9.856 7.488 15.189333 0.234667 9.258667-4.394667 16.682667-12.373333 20.117333-8.085333 3.477333-16.874667 1.536-23.488-5.290667-12.885333-13.205333-24.277333-24.768-45.930667-46.634667-3.861333-3.861333-6.570667-6.229333-9.984-8.341333-3.072-1.92-5.12-2.24-9.322667-2.389333 0 0 0 0-0.021333 0-0.853333-0.042667-0.896-0.042667-0.981333-0.042667l-12.202667-1.621333 0.128 12.309333c0 0.106667 0 0.192-0.064 1.066667 0 0.042667 0 0.042667 0 0.085333-0.341333 4.224-0.234667 6.378667 1.408 9.749333 1.749333 3.541333 3.605333 5.824 7.402667 9.856 3.52 3.712 6.677333 6.976 12.544 13.034667 0.725333 0.746667 0.725333 0.746667 1.429333 1.472 10.666667 11.008 15.850667 16.448 21.781333 22.933333 6.698667 7.317333 7.232 18.090667 1.472 25.984-7.104 9.685333-20.736 11.328-29.653333 3.584-4.202667-3.669333-7.765333-7.402667-14.442667-14.826667-0.042667-0.042667-0.042667-0.042667-0.085333-0.085333-0.021333 0.234667 0 0.469333-0.021333 0.704 0.042667-0.405333 0-0.725333-1.6-2.496 0.810667 0.896 0.896 0.981333 1.621333 1.792 3.413333-38.698667-16.512-71.658667-52.224-86.272 0.405333 0.170667-0.042667-0.341333 0-0.234667-8.469333-24.149333-24.341333-41.322667-47.637333-51.136 0.341333 0.149333-0.256-0.512-0.298667-0.64-8.618667-22.421333-24-38.4-46.058667-47.637333 0.042667 0.021333-0.512-0.533333-0.384-0.149333-14.869333-41.514667-56.917333-61.824-100.885333-51.328-27.456 6.528-47.317333 23.189333-59.541333 48.234667 2.538667 0.874667-3.157333-1.088 0 0l0 0 0 0c-0.042667 0.085333 0.106667-0.170667 0 0 0.106667-0.170667-0.042667 0.064 0 0l0 0c0.213333-0.234667-0.085333 0.085333 0 0 0.810667-1.92-0.896 1.834667 0 0-10.368-3.605333-16.512-5.738667-22.784-7.936 0 2.133333 0-3.050667 0 0l0 0c1.92 0.661333-1.92-0.661333 0 0 1.152 0.405333-1.088-0.384 0 0 0-9.472 0-12.074667 0-25.621333 0-57.088 0-103.402667 0-200.874667-5.418667-1.856 4.501333 1.514667 0 0l0 0c0 5.141333 0-4.864 0 0 3.434667 1.173333 7.253333 2.496 12.352 4.266667 0.064 0.021333 0.064 0.021333 0.149333 0.042667 31.808 10.986667 46.144 15.744 64.298667 20.949333 19.413333 5.546667 39.36 1.450667 58.261333-10.56 35.690667-22.613333 66.026667-38.464 97.002667-49.664C422.698667 293.610667 446.656 295.850667 469.269333 309.866667M862.208 556.202667c-3.370667 0.618667-7.296 1.365333-12.757333 2.389333-3.306667 0.618667-3.306667 0.618667-6.613333 1.237333-20.650667 3.882667-33.365333 6.122667-46.741333 8.106667-13.738667 2.048-25.813333-2.346667-36.778667-13.248-20.288-20.138667-37.162667-36.842667-72.789333-72.042667-1.237333-1.237333-1.237333-1.237333-2.496-2.453333-34.282667-33.877333-50.538667-49.941333-70.037333-69.312-17.898667-17.770667-39.978667-22.058667-62.186667-11.754667-16.704 7.765333-29.909333 14.442667-59.029333 29.546667-0.128 0.064-0.128 0.064-0.256 0.128-11.498667 5.973333-16.661333 8.64-23.061333 11.904-3.221333 1.642667-5.973333 3.072-11.392 5.930667-0.256 0.128-0.256 0.128-0.512 0.277333-6.421333 3.370667-9.344 4.906667-12.949333 6.72-15.061333 7.573333-32.618667 1.984-40.554667-12.949333-7.701333-14.464-2.474667-32.32 11.925333-40.469333 35.562667-20.117333 64.106667-36.224 128.021333-72.234667 0.405333-0.213333 0.405333-0.213333 0.789333-0.448 21.12-11.904 30.464-17.173333 42.24-23.808 0.106667-0.064 0.106667-0.064 0.170667-0.106667 0.064-0.021333 0.064-0.021333 0.128-0.085333 0.384-0.213333 0.384-0.213333 1.024-0.64 19.541333-12.778667 37.226667-11.114667 55.978667 4.778667 7.722667 6.549333 14.144 11.989333 27.733333 23.488 0.533333 0.448 0.533333 0.448 1.045333 0.896 21.696 18.346667 31.829333 26.922667 44.053333 37.397333 14.357333 12.288 31.189333 16.469333 49.642667 12.458667 13.12-2.858667 24.448-5.333333 46.784-10.24 16.96-3.712 24.64-5.397333 33.92-7.424 5.226667-1.152 9.898667-2.154667 14.656-3.2M862.208 361.045333c0 53.013333 0 100.586667 0 195.157333" p-id="26524" fill="#9b06d8"></path></svg>