<?xml version="1.0" standalone="no"?><!DOCTYPE svg PUBLIC "-//W3C//DTD SVG 1.1//EN" "http://www.w3.org/Graphics/SVG/1.1/DTD/svg11.dtd"><svg t="1553509996610" class="icon" style="" viewBox="0 0 1024 1024" version="1.1" xmlns="http://www.w3.org/2000/svg" p-id="14669" xmlns:xlink="http://www.w3.org/1999/xlink" width="64" height="64"><defs><style type="text/css">@font-face { font-family: uc-nexus-iconfont; src: url("chrome-extension://pogijhnlcfmcppgimcaccdkmbedjkmhi/res/font_9qmmi8b8jsxxbt9.woff") format("woff"), url("chrome-extension://pogijhnlcfmcppgimcaccdkmbedjkmhi/res/font_9qmmi8b8jsxxbt9.ttf") format("truetype"); }
</style></defs><path d="M488.321467 439.884926 522.882942 439.884926 522.882942 398.408723 484.854981 398.408723 488.321467 439.884926Z" p-id="14670" fill="#9b06d8"></path><path d="M564.338467 533.178406 591.979133 533.178406 595.449268 477.892209 564.338467 477.892209 564.338467 533.178406Z" p-id="14671" fill="#9b06d8"></path><path d="M495.239844 529.730164 522.882942 529.730164 522.882942 477.892209 491.770925 477.892209 495.239844 529.730164Z" p-id="14672" fill="#9b06d8"></path><path d="M446.847697 398.408723 388.112043 398.408723 398.476228 439.884926 450.314184 439.884926 446.847697 398.408723Z" p-id="14673" fill="#9b06d8"></path><path d="M408.840414 477.892209 422.672302 529.730164 457.20945 529.730164 453.763641 477.892209 408.840414 477.892209Z" p-id="14674" fill="#9b06d8"></path><path d="M512.000608 44.862412c-258.230106 0-467.577893 209.347787-467.577893 467.583974 0 258.230106 209.347787 467.579109 467.577893 467.579109 258.232539 0 467.580325-209.347787 467.580325-467.579109C979.580933 254.211415 770.231931 44.862412 512.000608 44.862412L512.000608 44.862412zM465.345354 733.599686c-20.728371 0-34.560258-13.81121-34.560258-34.557826 0-20.729587 17.278913-34.540797 34.560258-34.540797 17.277697 0 34.559042 13.81121 34.559042 34.540797C499.90318 719.788476 486.071292 733.599686 465.345354 733.599686L465.345354 733.599686zM638.118671 733.599686c-20.727154 0-34.557826-13.81121-34.557826-34.557826 0-20.729587 17.27648-34.540797 34.557826-34.540797 17.278913 0 34.561475 13.81121 34.561475 34.540797C672.680146 719.788476 658.868935 733.599686 638.118671 733.599686L638.118671 733.599686zM752.163632 384.598729c0 6.915944-3.470135 10.365402-6.919593 13.81121L696.875003 547.01151l0 13.81121c0 6.91716-6.915944 13.833104-13.83432 13.833104L434.251582 574.655824l10.362969 41.453092 238.426132 0c6.920809 0 13.83432 6.91716 13.83432 13.831888l0 13.812427c0 6.915944-6.915944 13.830671-13.83432 13.830671L434.251582 657.583903c-3.468919 0-6.918377-3.470135-10.364185-6.915944-6.91716 0-10.364185-3.448241-10.364185-10.365402l-82.949972-307.550298-44.923228 0c-6.915944 0-13.812427-6.906213-13.812427-13.81121l0-13.831888c0-6.915944 6.896483-13.822157 13.812427-13.822157l65.672275 0c6.895267 0 13.81121 6.906213 13.81121 13.822157l13.833104 51.846469L738.33296 356.955631c6.915944 0 13.833104 6.89405 13.833104 13.81121l0 13.830671L752.163632 384.597513 752.163632 384.598729z" p-id="14675" fill="#9b06d8"></path><path d="M640.371279 439.884926 685.295723 439.884926 688.743964 439.884926 702.555175 398.408723 643.817088 398.408723 640.371279 439.884926Z" p-id="14676" fill="#9b06d8"></path><path d="M629.986416 529.730164 657.652624 529.730164 674.909644 477.892209 633.456551 477.892209 629.986416 529.730164Z" p-id="14677" fill="#9b06d8"></path><path d="M564.338467 439.884926 598.896293 439.884926 602.345751 398.408723 564.338467 398.408723 564.338467 439.884926Z" p-id="14678" fill="#9b06d8"></path></svg>