<?xml version="1.0" standalone="no"?><!DOCTYPE svg PUBLIC "-//W3C//DTD SVG 1.1//EN" "http://www.w3.org/Graphics/SVG/1.1/DTD/svg11.dtd"><svg t="1553510636972" class="icon" style="" viewBox="0 0 1024 1024" version="1.1" xmlns="http://www.w3.org/2000/svg" p-id="32044" xmlns:xlink="http://www.w3.org/1999/xlink" width="64" height="64"><defs><style type="text/css">@font-face { font-family: uc-nexus-iconfont; src: url("chrome-extension://pogijhnlcfmcppgimcaccdkmbedjkmhi/res/font_9qmmi8b8jsxxbt9.woff") format("woff"), url("chrome-extension://pogijhnlcfmcppgimcaccdkmbedjkmhi/res/font_9qmmi8b8jsxxbt9.ttf") format("truetype"); }
</style></defs><path d="M511.081614 0c-281.714798 0-510.163229 228.44843-510.163229 510.163229s228.44843 510.163229 510.163229 510.163229 510.163229-228.44843 510.163229-510.163229S792.796413 0 511.081614 0zM617.729148 270.120179c105.843946 0 191.598206 34.55426 191.598206 77.144395 0 42.590135-85.75426 77.144395-191.598206 77.144395-105.843946 0-191.598206-34.55426-191.598206-77.144395C426.130942 304.674439 511.885202 270.120179 617.729148 270.120179zM394.561435 672.487892c-5.395516 0.229596-10.90583 0.344395-16.530942 0.344395-105.843946 0-191.598206-34.55426-191.598206-77.144395l0-52.347982c0 42.590135 85.75426 77.144395 191.598206 77.144395 5.510314 0 11.020628-0.114798 16.530942-0.344395L394.561435 672.487892zM394.561435 593.736323c-5.395516 0.229596-10.90583 0.344395-16.530942 0.344395-105.843946 0-191.598206-34.55426-191.598206-77.144395l0-52.347982c0 42.590135 85.75426 77.144395 191.598206 77.144395 5.510314 0 11.020628-0.114798 16.530942-0.344395L394.561435 593.736323zM394.561435 515.099552c-5.395516 0.229596-10.90583 0.344395-16.530942 0.344395-105.843946 0-191.598206-34.55426-191.598206-77.144395s85.75426-77.144395 191.598206-77.144395c5.510314 0 11.020628 0.114798 16.530942 0.344395L394.561435 515.099552zM809.327354 673.176682c0 42.590135-85.75426 77.144395-191.598206 77.144395-105.843946 0-191.598206-34.55426-191.598206-77.144395l0-52.347982c0 42.590135 85.75426 77.144395 191.598206 77.144395 105.843946 0 191.598206-34.55426 191.598206-77.144395L809.327354 673.176682zM809.327354 586.274439c0 42.590135-85.75426 77.144395-191.598206 77.144395-105.843946 0-191.598206-34.55426-191.598206-77.144395l0-52.347982c0 42.590135 85.75426 77.144395 191.598206 77.144395 105.843946 0 191.598206-34.55426 191.598206-77.144395L809.327354 586.274439zM809.327354 504.538117c0 42.590135-85.75426 77.144395-191.598206 77.144395-105.843946 0-191.598206-34.55426-191.598206-77.144395l0-52.347982c0 42.590135 85.75426 77.144395 191.598206 77.144395 105.843946 0 191.598206-34.55426 191.598206-77.144395L809.327354 504.538117zM809.327354 425.901345c0 42.590135-85.75426 77.144395-191.598206 77.144395-105.843946 0-191.598206-34.55426-191.598206-77.144395l0-52.347982c0 42.590135 85.75426 77.144395 191.598206 77.144395 105.843946 0 191.598206-34.55426 191.598206-77.144395L809.327354 425.901345z" p-id="32045" fill="#9b06d8"></path></svg>