<?xml version="1.0" standalone="no"?><!DOCTYPE svg PUBLIC "-//W3C//DTD SVG 1.1//EN" "http://www.w3.org/Graphics/SVG/1.1/DTD/svg11.dtd"><svg t="1553512570531" class="icon" style="" viewBox="0 0 1024 1024" version="1.1" xmlns="http://www.w3.org/2000/svg" p-id="49678" xmlns:xlink="http://www.w3.org/1999/xlink" width="64" height="64"><defs><style type="text/css">@font-face { font-family: uc-nexus-iconfont; src: url("chrome-extension://pogijhnlcfmcppgimcaccdkmbedjkmhi/res/font_9qmmi8b8jsxxbt9.woff") format("woff"), url("chrome-extension://pogijhnlcfmcppgimcaccdkmbedjkmhi/res/font_9qmmi8b8jsxxbt9.ttf") format("truetype"); }
</style></defs><path d="M522.362819 559.515442c-2.609895 0-5.21979-0.153523-7.906447-0.383808l1.91904-22.337631c30.781409 2.609895 48.436582-15.889655 64.019191-32.23988 1.688756-1.842279 3.377511-3.531034 5.066267-5.21979 6.294453-6.447976 14.584708-9.902249 23.25877-9.902249h0.307047c8.674063 0.076762 16.734033 3.684558 22.798201 10.132534 11.514243 12.281859 23.872864 21.032684 24.026386 21.109445 19.036882 13.586807 38.994903 18.806597 57.724738 15.045277 18.806597-3.761319 36.001199-16.350225 47.208396-34.465967 18.192504-29.476462 8.367016-66.245277 7.13883-70.390404l-0.230284-0.767617-48.206297-130.034183c-4.068366-10.976912-13.663568-18.038981-24.333434-18.03898H327.618591V259.454273h367.534632c20.188306 0 38.073763 12.81919 45.442879 32.70045L788.802399 422.188906c0.307046 0.767616 0.537331 1.611994 0.767616 2.456371 2.37961 8.213493 13.049475 51.430285-9.671964 88.352624-14.431184 23.412294-36.9991 39.685757-61.869865 44.675262-25.101049 5.066267-51.046477-1.458471-75.226387-18.729835-0.537331-0.383808-14.2009-10.055772-27.403898-24.026386-2.302849-2.456372-4.912744-2.993703-6.678261-3.070465-2.609895-0.230285-5.296552 1.074663-7.369115 3.223988-1.535232 1.611994-3.147226 3.30075-4.835982 4.989505-15.966417 16.810795-37.536432 39.455472-74.151724 39.455472z" p-id="49679" fill="#bfbfbf"></path><path d="M510.925337 559.515442c-42.525937 0-71.695352-29.706747-86.126536-44.444977-2.072564-2.072564-4.605697-3.454273-7.369116-3.223988-1.765517 0-4.375412 0.537331-6.678261 3.070465-13.126237 13.970615-26.866567 23.71934-27.480659 24.103148-24.026387 17.271364-50.048576 23.71934-75.149626 18.653073-24.947526-4.989505-47.438681-21.262969-61.869865-44.675262C223.529835 476.075562 234.1997 432.935532 236.57931 424.645277c0.230285-0.767616 0.537331-1.611994 0.844378-2.456371l48.206297-129.957422c7.369115-19.881259 25.177811-32.70045 45.442879-32.70045h367.534632v22.491155H331.072864c-10.746627 0-20.265067 7.062069-24.333434 18.03898L258.226087 430.786207c-1.228186 4.145127-10.976912 40.913943 7.138831 70.390405 11.130435 18.115742 28.325037 30.627886 47.208395 34.465967 18.806597 3.761319 38.764618-1.381709 57.724738-14.968516 0.153523-0.153523 12.588906-8.904348 24.103148-21.186207 6.064168-6.447976 14.124138-10.055772 22.798201-10.132534h0.307047c8.750825 0 16.964318 3.531034 23.25877 9.902249 13.893853 14.2009 39.83928 40.530135 76.070765 37.45967l1.91904 22.337632c-2.609895 0.383808-5.21979 0.46057-7.829685 0.460569z" p-id="49680" fill="#bfbfbf"></path><path d="M672.815592 431.170015H355.176012c-6.217691 0-11.207196-5.066267-11.207196-11.207196 0-6.217691 4.989505-11.207196 11.207196-11.207197h317.63958c6.217691 0 11.207196 5.066267 11.207197 11.207197 0 6.217691-5.066267 11.207196-11.207197 11.207196zM698.991304 772.989505h-369.991004c-24.947526 0-45.289355-23.258771-45.289355-51.890854V598.356822c0-6.217691 4.989505-11.207196 11.207196-11.207197s11.207196 5.066267 11.207196 11.207197v122.741829c0 16.273463 10.209295 29.476462 22.798201 29.476461h369.991005c12.588906 0 22.798201-13.202999 22.798201-29.476461V598.356822c0-6.217691 4.989505-11.207196 11.207196-11.207197s11.207196 5.066267 11.207196 11.207197v122.741829c0.076762 28.632084-20.188306 51.890855-45.135832 51.890854z" p-id="49681" fill="#bfbfbf"></path></svg>