<?xml version="1.0" standalone="no"?><!DOCTYPE svg PUBLIC "-//W3C//DTD SVG 1.1//EN" "http://www.w3.org/Graphics/SVG/1.1/DTD/svg11.dtd"><svg t="1553511077238" class="icon" style="" viewBox="0 0 1025 1024" version="1.1" xmlns="http://www.w3.org/2000/svg" p-id="42721" xmlns:xlink="http://www.w3.org/1999/xlink" width="64.0625" height="64"><defs><style type="text/css">@font-face { font-family: uc-nexus-iconfont; src: url("chrome-extension://pogijhnlcfmcppgimcaccdkmbedjkmhi/res/font_9qmmi8b8jsxxbt9.woff") format("woff"), url("chrome-extension://pogijhnlcfmcppgimcaccdkmbedjkmhi/res/font_9qmmi8b8jsxxbt9.ttf") format("truetype"); }
</style></defs><path d="M512.587879 0c-282.769794 0-512 229.221686-512 512s229.221686 512 512 512 512-229.221686 512-512S795.366193 0 512.587879 0zM277.981562 570.08074c-6.245149 10.241022-9.389024 21.615203-9.389024 34.114021l0 96.693314-77.191067 0c-5.495391 0-9.976903-2.121476-13.478617-6.381469-3.501714-4.242953-5.248311-9.610543-5.248311-16.102772L172.674543 586.933271c0-10.990781 3.987353-17.985689 11.979099-20.967684l116.18704-53.974107c-13.998336-8.494425-25.244717-20.609845-33.739142-36.354778-8.502945-15.744933-12.737378-33.355743-12.737378-52.840949 0-13.487137 2.249276-26.360835 6.747828-38.595534 4.507072-12.243219 10.624422-22.867641 18.352048-31.856225 7.753187-8.997105 16.741771-16.111292 26.999834-21.359603 10.232502-5.248311 21.342563-7.863946 33.338703-7.863946 8.000266 0 15.497853 1.243918 22.484241 3.731754 7.003428 2.496356 13.751256 5.75099 20.234965 9.746863-8.477385 20.984724-12.728858 42.727727-12.728858 65.203448 0 17.50005 2.487836 34.352581 7.489067 50.591673 4.975671 16.239092 11.979099 30.850867 20.984724 43.843845-5.503911 5.99807-11.246381 10.735182-17.25297 14.236896l-77.191067 36.738177C292.848937 552.205811 284.235231 559.831198 277.981562 570.08074zM719.061204 700.879555l0 17.21889c0 7.506107-2.232236 14.006856-6.739308 19.502246-4.490032 5.503911-10.223982 8.238826-17.22741 8.238826L327.073718 745.839518c-6.492229 0-11.979099-2.734915-16.486172-8.238826-4.498552-5.503911-6.747828-11.996139-6.747828-19.502246l0-17.21889L303.839718 604.194762c0-11.996139 4.992711-20.482045 14.986654-25.491796l103.432622-47.967518 40.46993-18.735448c-18.999567-11.49346-33.475022-27.979632-43.468965-49.475555-9.499784-18.991047-14.253936-39.217493-14.253936-60.713416 0-6.500749 0.511199-12.737378 1.508037-18.726928 1.005358-5.98955 2.249276-11.74906 3.731754-17.24445 7.003428-25.483276 19.630046-46.45948 37.854295-62.954172 18.258329-16.494692 39.362332-24.742037 63.337571-24.742037 24.494958 0 45.982361 8.502945 64.445169 25.474756 18.496888 17.005891 30.995707 38.493294 37.487936 64.470729 2.496356 12.490299 3.740274 23.736679 3.740274 33.722102 0 19.987886-4.004393 39.226013-11.979099 57.714381-9.993943 22.492761-24.486438 39.481612-43.486005 50.958032l42.736247 20.243485 99.692349 47.967518c9.976903 5.009751 14.969614 13.495657 14.969614 25.491796L719.044164 700.879555zM852.501215 678.403834c0 6.492229-1.772157 11.85982-5.248311 16.102772-3.493194 4.251473-7.991746 6.372949-13.487137 6.372949l-79.457383 0L754.308384 604.194762c0-12.498819-3.109795-23.872999-9.363464-34.114021-6.262189-10.258062-14.620295-17.874929-25.099877-22.859121l-74.209072-35.230139c-6.994908-3.995873-13.742736-9.746863-20.243485-17.24445 8.485905-12.975938 15.114454-27.357673 19.868606-43.094086 4.745632-15.744933 7.122708-32.350384 7.122708-49.850434 0-11.49346-1.005358-22.484241-3.007555-32.980863-1.993677-10.479582-4.992711-20.737644-8.988585-30.714547 6.492229-4.507072 13.487137-8.119546 20.984724-10.880021 7.480547-2.743435 15.233734-4.098113 23.234-4.098113 12.013179 0 23.234 2.615636 33.722102 7.863946 10.496622 5.239791 19.638566 12.362499 27.374713 21.359603s13.844976 19.621526 18.352048 31.856225c4.490032 12.243219 6.747828 25.108397 6.747828 38.595534 0 18.982527-4.251473 36.346258-12.728858 52.09119-8.511465 15.736413-19.238127 27.851832-32.248145 36.346258l114.687523 54.732386c7.983226 3.995873 11.987619 10.982261 11.987619 20.967684L852.501215 678.403834z" p-id="42722" fill="#9b06d8"></path></svg>