<?xml version="1.0" standalone="no"?><!DOCTYPE svg PUBLIC "-//W3C//DTD SVG 1.1//EN" "http://www.w3.org/Graphics/SVG/1.1/DTD/svg11.dtd"><svg t="1553511126245" class="icon" style="" viewBox="0 0 1024 1024" version="1.1" xmlns="http://www.w3.org/2000/svg" p-id="44088" xmlns:xlink="http://www.w3.org/1999/xlink" width="64" height="64"><defs><style type="text/css">@font-face { font-family: uc-nexus-iconfont; src: url("chrome-extension://pogijhnlcfmcppgimcaccdkmbedjkmhi/res/font_9qmmi8b8jsxxbt9.woff") format("woff"), url("chrome-extension://pogijhnlcfmcppgimcaccdkmbedjkmhi/res/font_9qmmi8b8jsxxbt9.ttf") format("truetype"); }
</style></defs><path d="M560 435.9c0-18.7-9.4-37.5-39.8-37.5h-23.4v77.3h23.4c28.1 0 39.8-16.4 39.8-39.8z" p-id="44089" fill="#9b06d8"></path><path d="M512 128c-213.1 0-384 173.3-384 384 0 213.1 170.9 384 384 384 210.7 0 384-170.9 384-384 0-210.7-173.3-384-384-384z m50.3 558.4v30.4h-37.5v-28.1H499v28.1h-37.5v-28.1h-88.9v-60.9h42.1V398.4h-42.1v-63.2h88.9v-28.1H499v28.1h25.8v-28.1h37.5v30.4c49.2 4.7 79.6 32.8 79.6 84.3 0 42.1-21.1 74.9-53.9 79.6v2.3c25.8 2.3 63.2 14 63.2 86.6 0.1 37.6-13.9 86.8-88.9 96.1z" p-id="44090" fill="#9b06d8"></path><path d="M522.5 531.9h-25.8v96h25.8c32.8 0 44.5-23.4 44.5-46.8 0-35.1-18.7-49.2-44.5-49.2z" p-id="44091" fill="#9b06d8"></path></svg>