<?xml version="1.0" standalone="no"?><!DOCTYPE svg PUBLIC "-//W3C//DTD SVG 1.1//EN" "http://www.w3.org/Graphics/SVG/1.1/DTD/svg11.dtd"><svg t="1553511005360" class="icon" style="" viewBox="0 0 1024 1024" version="1.1" xmlns="http://www.w3.org/2000/svg" p-id="41773" xmlns:xlink="http://www.w3.org/1999/xlink" width="64" height="64"><defs><style type="text/css">@font-face { font-family: uc-nexus-iconfont; src: url("chrome-extension://pogijhnlcfmcppgimcaccdkmbedjkmhi/res/font_9qmmi8b8jsxxbt9.woff") format("woff"), url("chrome-extension://pogijhnlcfmcppgimcaccdkmbedjkmhi/res/font_9qmmi8b8jsxxbt9.ttf") format("truetype"); }
</style></defs><path d="M512.018063 6.972376c-278.913106 0-505.027624 226.132581-505.027624 505.045687s226.114518 505.027624 505.027624 505.027624c278.913106 0 505.027624-226.114518 505.027624-505.027624S790.93117 6.972376 512.018063 6.972376zM833.99372 294.537732c-0.614147 1.95082-62.20949 197.267666-122.955865 357.776821-24.457506 64.648016-45.139813 110.709049-72.523549 140.567437-25.758053 28.088199-56.772482 41.310425-98.823496 42.069077-0.451579 0.090316-0.830905 0.325137-1.300547 0.397389-30.508661 2.727536-66.345952-14.468584-66.345952-14.468584l-208.575198-94.705098c0 0-98.624802-30.869924-68.983172-159.190545l284.873946 115.116458c0 0-10.910143 113.274017 77.761863 101.225895 18.297971-3.088799 32.007903-10.729511 44.48954-24.349127 21.892538-23.843359 40.840783-66.996225 62.570753-124.437044 47.018381-124.220286 94.614782-269.718963 113.526901-328.496454l-321.217005-63.961616-113.111448 310.324925c-4.750609 12.987405-19.110813 19.670771-32.116282 14.956289-12.987405-4.750609-19.688834-19.128876-14.938225-32.098218l120.481214-330.483401c4.226777-11.614606 16.292962-18.40635 28.395273-16.003951l369.770753 73.625401c6.990439 1.390863 13.041595 5.689892 16.654225 11.795237C835.258141 280.358158 836.125172 287.727924 833.99372 294.537732zM633.962392 490.017146c13.149974 4.29903 20.302981 18.442477 15.985888 31.610513-3.450062 10.530817-13.258352 17.250309-23.789169 17.250309-2.583031 0-5.202187-0.415452-7.821344-1.264421l-108.920797-35.746975c-13.168037-4.317093-20.284918-18.442477-15.985888-31.59245s18.442477-20.302981 31.574387-15.985888L633.962392 490.017146zM536.9994 368.614712c3.648756-13.330605 17.43094-21.188075 30.761545-17.539319l109.33625 29.912577c13.348668 3.648756 21.188075 17.412877 17.557382 30.743482-3.052672 11.126901-13.149974 18.442477-24.150432 18.442477-2.167578 0-4.407409-0.307074-6.611113-0.903158l-109.354313-29.912577C541.190051 395.7275 533.350644 381.96338 536.9994 368.614712zM608.999118 622.672923c-3.450062 10.54888-13.258352 17.250309-23.771106 17.250309-2.601094 0-5.22025-0.397389-7.821344-1.264421l-108.920797-35.728912c-13.168037-4.317093-20.302981-18.46054-16.003951-31.59245 4.29903-13.168037 18.442477-20.321044 31.59245-16.003951l108.93886 35.746975C606.163203 595.397566 613.298148 609.541013 608.999118 622.672923zM512.036126 357.722632c-2.492715 11.777174-12.879026 19.869466-24.457506 19.869466-1.734062 0-3.450062-0.180632-5.202187-0.541895l-1.228294-0.270947c-0.903158-0.180632-1.806315-0.379326-2.655283-0.559958-13.5293-2.908167-22.127359-16.220709-19.219192-29.731946 2.92623-13.5293 16.256835-22.127359 29.768072-19.201129 0.776715 0.162568 1.60762 0.361263 2.402399 0.505768l1.300547 0.28901C506.273981 330.898853 514.908167 344.193332 512.036126 357.722632zM472.947469 461.441242c-2.492715 11.777174-12.897089 19.869466-24.457506 19.869466-1.715999 0-3.450062-0.180632-5.22025-0.541895l-1.192168-0.270947c-0.903158-0.198695-1.842441-0.379326-2.709473-0.559958-13.511237-2.92623-22.109296-16.238772-19.201129-29.768072 2.92623-13.493173 16.238772-22.109296 29.768072-19.183066 0.794779 0.180632 1.60762 0.3432 2.438525 0.505768l1.264421 0.270947C467.149197 434.635527 475.801446 447.911942 472.947469 461.441242zM433.136285 557.573329c-2.492715 11.777174-12.879026 19.887529-24.457506 19.887529-1.734062 0-3.468125-0.216758-5.22025-0.541895l-1.31861-0.307074c-0.867031-0.180632-1.752126-0.379326-2.601094-0.541895-13.5293-2.908167-22.091233-16.220709-19.183066-29.750009 2.92623-13.511237 16.238772-22.109296 29.768072-19.183066 0.740589 0.162568 1.517305 0.307074 2.29402 0.469642l1.408926 0.28901C427.37414 530.767613 435.990263 544.062092 433.136285 557.573329z" p-id="41774" fill="#9b06d8"></path></svg>