<?xml version="1.0" standalone="no"?><!DOCTYPE svg PUBLIC "-//W3C//DTD SVG 1.1//EN" "http://www.w3.org/Graphics/SVG/1.1/DTD/svg11.dtd"><svg t="1553502707678" class="icon" style="" viewBox="0 0 1024 1024" version="1.1" xmlns="http://www.w3.org/2000/svg" p-id="728" xmlns:xlink="http://www.w3.org/1999/xlink" width="128" height="128"><defs><style type="text/css"></style></defs><path d="M227.29728 382.249984c18.914304 5.671936 41.606144-1.88928 60.520448 13.236224 0 0 232.607744 34.040832 340.405248-5.671936v-3.782656c15.125504-3.781632 32.145408 0 45.387776-3.781632 17.019904-5.670912 28.361728-24.585216 24.580096-43.495424-3.782656-20.801536-18.909184-37.82144-41.606144-41.60512 17.026048-28.368896 43.49952-49.170432 73.756672-60.519424 54.843392-20.798464 115.356672-9.454592 117.251072 58.625024 1.88928 79.428608-130.48832 126.710784-204.244992 105.9072 13.237248 9.454592 7.566336 17.019904 7.566336 17.019904 43.4944 5.67296 86.99392-1.893376 124.816384-20.80256 43.495424-18.914304 94.554112-64.30208 85.09952-117.251072-13.237248-66.19136-68.079616-77.539328-126.70464-62.40768-41.606144 11.348992-75.645952 39.711744-98.336768 77.534208-28.368896 1.893376-56.736768 24.585216-83.211264 32.150528-49.171456 13.238272-49.171456-32.150528-105.90208-32.150528-56.737792 0-56.737792 47.282176-105.909248 34.039808-28.361728-7.561216-62.40256-34.039808-92.664832-30.257152-24.580096 0-45.38368 18.914304-49.166336 43.498496-0.001024 15.127552 11.342848 34.041856 28.362752 39.713792z m281.7792 423.614464c0-5.676032 0-13.236224-1.888256-18.914304v-17.019904c-7.566336 1.8944-17.019904 1.8944-28.368896 3.78368-5.671936 1.8944-11.342848 3.781632-17.019904 3.781632-3.781632 7.568384-7.566336 17.019904-9.453568 26.47552 7.564288 0 17.019904 0 30.256128 1.892352h26.474496z m7.565312-126.70464c60.519424 0 92.664832-11.347968 92.664832-34.03776 0-15.133696-11.342848-22.697984-32.146432-22.697984-39.716864 0-77.539328 7.564288-115.361792 20.801536-1.88928 3.781632-1.88928 7.566336-1.88928 11.347968 0.001024 18.90816 18.910208 26.474496 56.732672 24.58624z m58.625024 85.098496h-30.256128v41.606144c13.237248 0 26.473472 0 39.709696-1.892352v30.256128h-39.709696c1.88928 7.566336 1.88928 15.131648 1.88928 22.695936 1.893376 7.566336 1.893376 15.125504 1.893376 22.693888 52.948992-5.671936 79.428608-28.365824 81.317888-71.86432 1.892352-30.258176-17.020928-45.387776-54.844416-43.495424z m-64.29696 117.252096v-47.282176h-58.624c0 26.477568 20.801536 41.604096 58.624 47.282176z m0 0" p-id="729" fill="#e3d20d"></path><path d="M942.145536 584.599552c-79.427584-17.019904-68.079616-3.781632-139.941888-45.387776-7.566336-3.781632-15.131648-9.455616-22.69184-13.238272-34.039808-43.493376-75.645952-79.427584-122.928128-105.90208l-1.888256-3.781632v1.893376c0 34.039808-26.474496 60.514304-60.514304 60.514304-34.040832 0-60.520448-26.474496-60.520448-60.514304-45.3888 1.888256-94.554112 1.888256-139.941888 1.888256-1.88928 34.039808-32.151552 58.625024-64.29696 54.843392-30.257152-1.88928-54.843392-28.367872-56.737792-58.625024v-5.671936C142.19776 482.481152 43.859968 645.122048 87.355392 777.495552c52.953088 155.073536 217.48224 192.896 391.463936 189.116416 111.58016-1.890304 281.780224-28.36992 340.405248-141.840384 43.4944-81.31584 34.039808-170.198016-5.671936-245.843968 39.711744 15.125504 83.211264 22.69184 124.812288 20.801536 3.781632 0 7.565312-5.676032 7.565312-9.453568-0.001024-1.893376-1.890304-3.781632-3.784704-5.676032z m-503.037952-60.51328c69.968896 5.669888 139.942912 7.564288 208.022528 9.455616v35.934208c-52.947968-3.785728-122.923008-7.568384-209.916928-9.46176l1.8944-35.928064z m11.343872 56.731648l32.150528 18.912256c30.257152-9.453568 62.409728-13.236224 92.665856-13.236224 51.059712 1.888256 77.540352 17.019904 79.428608 49.166336-3.782656 51.059712-49.171456 77.540352-139.942912 79.429632-62.40768 1.892352-92.664832-18.912256-90.776576-62.409728-0.001024-24.580096 11.348992-51.059712 26.474496-71.862272zM318.07488 525.973504c7.564288 5.676032 17.020928 13.238272 30.256128 24.58624 9.454592 9.453568 18.914304 17.019904 30.257152 24.58624l-22.690816 26.474496c-13.238272-13.238272-26.473472-24.58624-39.71072-35.930112l-18.914304-17.017856 20.80256-22.699008z m45.387776 383.898624l-35.934208 1.8944c0-41.604096-1.88928-88.882176-5.671936-138.051584-18.914304 15.1296-37.823488 30.258176-54.843392 41.606144l-22.69696-28.36992c69.974016-45.387776 111.579136-88.880128 121.034752-126.705664 1.893376-7.564288-3.78368-13.236224-11.344896-15.122432h-3.781632c-30.263296 5.669888-60.520448 18.906112-85.10464 37.820416l-22.69184-30.262272c34.038784-24.580096 73.756672-39.711744 115.356672-41.604096 30.263296 1.892352 47.2832 15.1296 49.170432 43.498496-1.887232 22.69184-11.347968 45.387776-28.367872 62.40768 17.019904 9.455616 34.039808 18.90816 51.065856 26.474496l-18.91328 30.258176c-17.019904-11.347968-34.038784-22.689792-51.060736-32.151552-1.893376 58.624 0 115.359744 3.78368 168.307712z m164.527104 5.67808c-75.644928-1.8944-113.468416-28.367872-115.362816-83.21024 0-37.824512 11.348992-75.645952 32.151552-107.797504l30.257152 13.242368c32.151552-5.676032 66.19136-9.457664 100.230144-9.457664 66.192384-1.888256 98.342912 22.697984 94.560256 75.645952-1.893376 73.754624-49.171456 111.577088-141.836288 111.577088z m0 0M324.160512 276.176896c28.911616 25.644032 73.140224 22.989824 98.779136-5.921792 25.644032-28.909568 22.995968-73.133056-5.915648-98.778112-28.915712-25.639936-73.1392-22.989824-98.778112 5.920768-25.64608 28.911616-22.995968 73.140224 5.914624 98.779136z m0 0M464.135168 158.979072a58.637312 58.637312 0 0 0 57.433088 11.763712 58.635264 58.635264 0 0 0 38.903808-43.862016 58.605568 58.605568 0 0 0-18.537472-55.617536 58.617856 58.617856 0 0 0-57.433088-11.763712 58.632192 58.632192 0 0 0-38.902784 43.860992 58.635264 58.635264 0 0 0 18.536448 55.61856z m0 0" p-id="730" fill="#e3d20d"></path></svg>