<?xml version="1.0" standalone="no"?><!DOCTYPE svg PUBLIC "-//W3C//DTD SVG 1.1//EN" "http://www.w3.org/Graphics/SVG/1.1/DTD/svg11.dtd"><svg t="1553511198497" class="icon" style="" viewBox="0 0 1024 1024" version="1.1" xmlns="http://www.w3.org/2000/svg" p-id="47333" xmlns:xlink="http://www.w3.org/1999/xlink" width="64" height="64"><defs><style type="text/css">@font-face { font-family: uc-nexus-iconfont; src: url("chrome-extension://pogijhnlcfmcppgimcaccdkmbedjkmhi/res/font_9qmmi8b8jsxxbt9.woff") format("woff"), url("chrome-extension://pogijhnlcfmcppgimcaccdkmbedjkmhi/res/font_9qmmi8b8jsxxbt9.ttf") format("truetype"); }
</style></defs><path d="M636.9 636.3c-14.8 0-26.9 12.1-26.9 26.9 0 14.8 12.1 26.9 26.9 26.9 14.8 0 26.9-12 26.9-26.9 0-14.9-12.1-26.9-26.9-26.9zM560.5 559.9c-14.8 0-26.9 12.1-26.9 26.9 0 14.8 12.1 26.9 26.9 26.9 14.8 0 26.9-12.1 26.9-26.9 0-14.8-12.1-26.9-26.9-26.9zM636.9 483.4c-14.8 0-26.9 12.1-26.9 26.9s12.1 26.9 26.9 26.9c14.8 0 26.9-12.1 26.9-26.9s-12.1-26.9-26.9-26.9zM395.9 480.7h-55.2v78.5h-78.5v55.2h78.5v78.5h55.2v-78.5h78.5v-55.2h-78.5z" p-id="47334" fill="#9b06d8"></path><path d="M512 32C238.1 32 16 254.1 16 528s222.1 496 496 496 496-222.1 496-496S785.9 32 512 32z m305.8 649.9c0 48.6-39.4 88.1-88.1 88.1H294.3c-48.6 0-88.1-39.4-88.1-88.1V491.7c0-48.6 39.4-88.1 88.1-88.1H490v-33.1c0-30.7 23.5-118.5 127.7-118.5h66.1v44.1h-66.1c-81.3 0-83.6 73.6-83.6 74.4v33.1h195.6c48.7 0 88.2 39.4 88.1 88.1v190.2z" p-id="47335" fill="#9b06d8"></path><path d="M713.4 559.9c-14.8 0-26.9 12.1-26.9 26.9 0 14.8 12.1 26.9 26.9 26.9 14.8 0 26.9-12.1 26.9-26.9 0-14.8-12.1-26.9-26.9-26.9z" p-id="47336" fill="#9b06d8"></path></svg>