<?xml version="1.0" standalone="no"?><!DOCTYPE svg PUBLIC "-//W3C//DTD SVG 1.1//EN" "http://www.w3.org/Graphics/SVG/1.1/DTD/svg11.dtd"><svg t="1553510776241" class="icon" style="" viewBox="0 0 1024 1024" version="1.1" xmlns="http://www.w3.org/2000/svg" p-id="33593" xmlns:xlink="http://www.w3.org/1999/xlink" width="64" height="64"><defs><style type="text/css">@font-face { font-family: uc-nexus-iconfont; src: url("chrome-extension://pogijhnlcfmcppgimcaccdkmbedjkmhi/res/font_9qmmi8b8jsxxbt9.woff") format("woff"), url("chrome-extension://pogijhnlcfmcppgimcaccdkmbedjkmhi/res/font_9qmmi8b8jsxxbt9.ttf") format("truetype"); }
</style></defs><path d="M984.767 510.383c0 261.53-212.021 473.543-473.563 473.543-261.54 0-473.562-212.013-473.562-473.543 0-261.53 212.021-473.542 473.562-473.542 261.542 0 473.563 212.012 473.563 473.542zM572.191 782.121c-53.603-30.934-77.809-78.463-78.082-139.205-0.243-53.696 36.478-92.458 56.539-137.94 4.84-10.974 10.981-21.412 16.976-31.835 3.7-6.435 7.28-13.441 12.615-18.336 13.65-12.527 19.729-35.683 14.195-51.487-4.607-13.161-7.241-27.078-9.979-40.811-3.991-20.028-5.5-40.717-11.188-60.211-28.888-99.031-157.496-110.342-213.993-52.030-25.441 26.258-35.009 58.223-39.536 92.936-2.409 18.473-3.199 37.642-9.011 55.063-7.612 22.821-4.617 42.443 13.706 58.457 3.869 3.385 7.406 8.322 8.765 13.19 5.087 18.249 14.169 33.512 29.056 45.456 15.54 12.465 18.183 29.564 16.122 48.106-3.088 27.787-23.19 40.652-45.8 49.829-22.535 9.151-46.278 15.304-68.938 24.182-18.457 7.228-36.865 17.678-39.128 39.405-2.672 25.646-1.481 51.721-1.387 77.612 0.052 14.258 9.848 20.422 22.326 22.661 16.877 3.030 33.847 5.591 50.835 7.945 81.467 11.286 163.183 16.525 245.325 8.868 12.441-1.161 24.752-3.706 40.592-6.144-5.482-3.127-7.752-4.409-10.010-5.711zM798.232 644.542c0-72.764-58.991-131.753-131.758-131.753v0c-72.767 0-131.758 58.988-131.758 131.753v0c0 72.764 58.991 131.753 131.758 131.753v0c72.767 0 131.758-58.988 131.758-131.753v0zM719.75 666.475c3.878 0 7.755 0 11.632 0 16.58-0.017 27.603-8.967 27.363-22.225-0.24-13.416-10.962-22.674-27.122-23.322-3.87-0.152-7.755-0.010-11.631-0.059-33.749-0.443-30.090 4.68-30.732-29.74-0.112-6.036-0.578-12.165-1.798-18.062-2.589-12.522-10.456-19.432-23.494-18.603-13.687 0.87-18.802 10.447-19.792 22.491-0.769 9.36-0.94 18.883-0.129 28.227 1.112 12.768-4.432 17.015-16.451 15.798-6.032-0.612-12.177-0.182-18.271-0.078-18.989 0.321-28.285 7.502-28.998 22.3-0.714 14.795 7.653 21.691 27.889 22.997 35.347 2.279 35.347 2.279 35.671 36.468 0.196 20.93 7.205 30.847 21.785 30.823 14.408-0.023 22.811-10.747 23.682-30.263 0.1-2.213 0.009-4.433 0.036-6.649 0.425-33.219-3.841-30.035 30.359-30.101z" p-id="33594" fill="#9b06d8"></path></svg>